/* XPM */
static char *_5b002819a2d48d6996128811c26c776gibtLpnEWdmAneFm[] = {
/* columns rows colors chars-per-pixel */
"100 100 3 1 ",
"  c #5C1E1C",
". c #78362A",
"X c #AD7044",
/* pixels */
"..............XX................................X...................................X............   ",
"..............X ................................X...................................X.............. ",
"...  .........X.................................X...................................X...............",
"..... ........X.................................X......................  ...........XX .............",
"..............X...............  ..........  ....X........................ ..........XXX.............",
"..............X................  .......... ....X...................................X...............",
"..............X.................................X...................................X...............",
"..............X.................................X...................................X...............",
"..............X.................................X........... .......................X...............",
"............  X.................................X.........  X.......................X...............",
"............X X.......XX........................X.........XXX.......................X...............",
"XXXXXXXXXXXXXXXXXXXXXXXXXXXXXXXXXXXXXXXXXXXXXXXXXXXXXXXXXXXXXXXXXXXXXXXXXXXXXXXXXXXXXXXXXXXXXXXXXXXX",
".....X..................................XXX.............................X.........................XX",
".....X..................................XXX.............................X......................... X",
".....X.. ...............................X...............................X...........................",
".....X.. ...............................X........ ......................X......   ..................",
".....X...   ............................X....... .......................X.....  ....................",
".....X..................................X....... .......................X...........................",
".....X..................................X...............................X...........................",
".....X..................................X...............................X...........................",
".....X..................................X...............  ..............X...........................",
".....X..................................X.................  ............X...........................",
".....X......................... ........X...............................X...........................",
".....X........................  ........X...............................X.................  . ......",
".....X......................... ........X...............................X................... .......",
".....X........................  ........X...............................X...........................",
".....X..................................X...............................X ..........................",
".....X XX...............................X...............................X ..........................",
"X....XXX ...............................X .........................XX ..XX..........................",
"XXXXXXXXXXXXXXXXXXXXXXXXXXXXXXXXXXXXXXXXXXXXXXXXXXXXXXXXXXXXXXXXXXXXXXXXXXXXXXXXXXXXXXXXXXXXXXXXXXXX",
"..................XX .X................................... XX................................  XX...",
"......................X.....................................X..................................X....",
"......................X.....................................X..................................X....",
"......................X........ ............................X..............  ..................X....",
"......................X.......  ............................X................  ................X....",
"......................X....... .............................X..................................X....",
"......................X.....................................X..................................X....",
"....... ..............X............................. .......X..................................X....",
"........  ............X.......................... . ........X..................................X....",
"...........  .........X........................... .........XX.................................X....",
"......................X.....................................XX.................................X....",
"......................X.....................................X.... .............................X....",
"......................X.....................................X..... ............................X....",
"X ....................X..........  X........................X................................ XX... ",
"XXX...................X..........XXX........................X................................XXX... ",
"XXXXXXXXXXXXXXXXXXXXXXXXXXXXXXXXXXXXXXXXXXXXXXXXXXXXXXXXXXXXXXXXXXXXXXXXXXXXXXXXXXXXXXXXXXXXXXXXXXXX",
"............XX....................................XX...............................X................",
".............X....................................XX...............................X................",
".............X.....................................X........................ .....XX................",
".............X.....................................X......................... ...XXX................",
".............X.....................................X.............................X.X................",
".............X.....................................X...   .........................X................",
".............X.....................................X....  .........................X................",
"..... .......X... ... .............................X..... .........................X...... .........",
"..... .......X....   ..............................X...............................X.......  .......",
".... ........X...... ..............................X...............................X....... ........",
".............X.....................................X...............................X....... ........",
".. ..........X.....................................X...............................X................",
".............X..............................  .....X.................. ............X................",
".............X...............................  ....X.................  ............X................",
".............X................................ ....X...............................X................",
".............X.....................................X...............................X................",
".............X.X...................................X...............................X..........  ....",
".............XXXX..................................X. X............................XX........ ......",
" XX..........XXX...................................X XX............................XXX  ............",
"XXXXXXXXXXXXXXXXXXXXXXXXXXXXXXXXXXXXXXXXXXXXXXXXXXXXXXXXXXXXXXXXXXXXXXXXXXXXXXXXXXXXXXXXXXXXXXXXXXXX",
"..........................XXX....... XXX.....................X....XX..........................X.. XX",
"...........................XX..........  ....................X.....X..........................X.....",
"........................... X................................X................................X.....",
".................. .........X................................X................................X.....",
"...................  .......X................................X................................X.....",
"..................... ......X...................... .........X.....................  .........X.....",
"............................X....................  ..........X.................... . .........X.....",
"............................X................... ............X................... ............X.....",
"............................X................................X................................X.....",
"............................X.... ...........................X................................X.....",
"...  .......................X.... ...........................X...... .........................X.....",
".. .........................X..... ..........................X.......  .......................X.....",
"............................X...... .........................X......... ......................X.....",
"............................X................................X................................X.....",
"............................X................................X................................X.....",
"............................X................................X................................X.....",
"............................X................................X................................X.....",
"............................X................................X................................X.....",
"....................X ......X..............................XXX................................X.....",
"XX .................XX .....X...............................XX....................XXX.........X.....",
"XXXXXXXXXXXXXXXXXXXXXXXXXXXXXXXXXXXXXXXXXXXXXXXXXXXXXXXXXXXXXXXXXXXXXXXXXXXXXXXXXXXXXXXXXXXXXXXXXXXX",
"............XX................................XXX......................XXX....X.................. XX",
"............X.................................XX.......................  X....X....................X",
"............X.................................X...............................X.....................",
"............X.................................X...............................X.....................",
"............X......  .........................X...............................X....  ...............",
"............X.....  ..........................X...............................X.....  ..............",
"............X.................................X...............................X.....................",
"............X.................................X..........   ..................X.....................",
"............X.................... ............X......... ..  .................XXX..........  .......",
"........... X................... . ...........X......... .....................XX ............  .....",
"...........XX...................... ..........X...............................X ....................",
".......... XX.................................X...............................X.....................",
"..........XXX.................................X...............................X....................."
};
